<svg width="20" height="40" viewBox="0 0 40 40" fill="none" xmlns="http://www.w3.org/2000/svg">
<path d="M8.75001 19.3548C8.75001 19.0126 8.8817 18.6844 9.11612 18.4424C9.35055 18.2004 9.66849 18.0645 10 18.0645L26.9875 18.0645L25.3625 16.4C25.1271 16.157 24.9949 15.8274 24.9949 15.4838C24.9949 15.1402 25.1271 14.8107 25.3625 14.5677C25.5979 14.3247 25.9171 14.1882 26.25 14.1882C26.5829 14.1882 26.9021 14.3247 27.1375 14.5677L30.8875 18.4387C31.061 18.6201 31.1785 18.8505 31.2252 19.1008C31.2719 19.3512 31.2457 19.6101 31.15 19.8451C31.0562 20.0808 30.897 20.2825 30.6923 20.4248C30.4877 20.5672 30.2468 20.6439 30 20.6451L10 20.6451C9.66849 20.6451 9.35055 20.5092 9.11612 20.2672C8.8817 20.0252 8.75001 19.697 8.75001 19.3548Z" fill="#2E2F38"/>
<path d="M25 23.2258C24.999 23.056 25.0306 22.8876 25.0928 22.7304C25.155 22.5732 25.2466 22.4302 25.3625 22.3096L29.1125 18.4387C29.3479 18.1957 29.6671 18.0592 30 18.0592C30.1648 18.0592 30.328 18.0927 30.4803 18.1578C30.6326 18.2229 30.7709 18.3184 30.8875 18.4387C31.004 18.559 31.0965 18.7018 31.1596 18.859C31.2226 19.0162 31.2551 19.1847 31.2551 19.3548C31.2551 19.6984 31.1229 20.028 30.8875 20.2709L27.1375 24.1419C27.0213 24.2628 26.883 24.3588 26.7307 24.4243C26.5784 24.4899 26.415 24.5236 26.25 24.5236C26.085 24.5236 25.9216 24.4899 25.7693 24.4243C25.6169 24.3588 25.4787 24.2628 25.3625 24.1419C25.2466 24.0213 25.155 23.8783 25.0928 23.7211C25.0306 23.5639 24.999 23.3956 25 23.2258Z" fill="#2E2F38"/>
</svg>
